<svg id="_x31__x2C_5" enable-background="new 0 0 36 36" height="512" viewBox="0 0 36 36" width="512" xmlns="http://www.w3.org/2000/svg"><path d="m31.833 8.377c0 6.917 3.583 11.667 3.583 15s-1.916 10.333-17.249 10.333-17.584-9.417-17.584-13.083c0-17.167 31.25-24.5 31.25-12.25z" fill="#f3f3f1"/><g fill="#a4afc1"><path d="m19.207 2.674h1v2h-1z" transform="matrix(.707 -.707 .707 .707 3.174 15.011)"/><path d="m23.273 6.74h1v2h-1z" transform="matrix(.707 -.707 .707 .707 1.49 19.077)"/><path d="m22.596 3.174h2v1h-2z" transform="matrix(.707 -.707 .707 .707 4.313 17.761)"/></g><circle cx="15" cy="11" fill="#2fdf84" r="4.5"/><path d="m19.5 18.75c2.21 0 4 1.79 4 4v4h-17v-4c0-2.21 1.79-4 4-4z" fill="#efefef"/><path d="m12.75 11.25c0-2.094 1.438-3.839 3.375-4.341-.362-.094-.734-.159-1.125-.159-2.485 0-4.5 2.015-4.5 4.5s2.015 4.5 4.5 4.5c.391 0 .763-.065 1.125-.159-1.937-.502-3.375-2.247-3.375-4.341z" fill="#00b871"/><path d="m12.75 18.75h-2.25c-2.21 0-4 1.79-4 4v4h2.25v-4c0-2.21 1.79-4 4-4z" fill="#d5dbe1"/><path d="m15 16c-2.757 0-5-2.243-5-5s2.243-5 5-5 5 2.243 5 5-2.243 5-5 5zm0-8.5c-1.93 0-3.5 1.57-3.5 3.5s1.57 3.5 3.5 3.5 3.5-1.57 3.5-3.5-1.57-3.5-3.5-3.5z"/><path d="m14.85 27.5h-8.35c-.414 0-.75-.336-.75-.75v-4c0-2.619 2.131-4.75 4.75-4.75h9c1.452 0 2.803.646 3.705 1.771.259.323.208.796-.116 1.055-.323.26-.794.208-1.054-.115-.617-.77-1.541-1.21-2.535-1.21h-9c-1.792 0-3.25 1.458-3.25 3.25v3.249h7.6c.414 0 .75.336.75.75s-.336.75-.75.75z"/><path d="m22.75 30c-.056 0-.112-.006-.169-.02-.404-.093-.655-.495-.563-.899l1.5-6.5c.093-.403.495-.658.899-.562.404.093.655.495.563.899l-1.5 6.5c-.079.348-.388.582-.73.582z"/><path d="m26.75 29c-.205 0-.409-.084-.558-.248-.277-.309-.252-.782.056-1.06l1.881-1.692-1.881-1.692c-.308-.277-.333-.751-.056-1.06.278-.308.752-.333 1.06-.056l2.5 2.25c.158.143.248.345.248.558s-.09.415-.248.558l-2.5 2.25c-.144.129-.323.192-.502.192z"/><path d="m20.25 29c-.179 0-.358-.063-.502-.192l-2.5-2.25c-.158-.143-.248-.345-.248-.558s.09-.415.248-.558l2.5-2.25c.308-.276.782-.251 1.06.056.277.309.252.782-.056 1.06l-1.881 1.692 1.881 1.692c.308.277.333.751.056 1.06-.149.164-.353.248-.558.248z"/></svg>